<svg width="23" height="23" viewBox="0 0 23 23" fill="none" xmlns="http://www.w3.org/2000/svg">
<path d="M11.457 0.75H11.5479C16.0963 0.75 18.4759 1.22778 20.1152 2.81543C21.793 4.53142 22.2519 6.89125 22.252 11.4355V11.5645C22.2519 16.1095 21.7932 18.4834 20.1221 20.1787C18.4809 21.7716 16.1196 22.25 11.5469 22.25H11.4551C6.89054 22.25 4.51435 21.7729 2.89258 20.1914C1.20973 18.4749 0.75001 16.1143 0.75 11.5645V11.4355C0.750007 6.89188 1.20886 4.51664 2.87988 2.82129C4.521 1.2283 6.88406 0.75 11.457 0.75Z" stroke="#A4A4A4" stroke-width="1.5"/>
<path d="M19.7192 11.341C19.7192 11.2589 19.6525 11.1909 19.5704 11.187C16.6228 11.0754 14.8289 10.6994 13.5739 9.44447C12.3164 8.18695 11.9417 6.39179 11.8301 3.43791C11.8275 3.35579 11.7595 3.28906 11.6761 3.28906H11.3322C11.2501 3.28906 11.182 3.35579 11.1782 3.43791C11.0666 6.3905 10.6919 8.18695 9.43433 9.44447C8.17807 10.7007 6.38543 11.0754 3.43791 11.187C3.35579 11.1896 3.28906 11.2576 3.28906 11.341V11.6849C3.28906 11.767 3.35579 11.835 3.43791 11.8389C6.38543 11.9505 8.17935 12.3265 9.43433 13.5814C10.6893 14.8364 11.064 16.6264 11.1769 19.5687C11.1795 19.6509 11.2475 19.7176 11.3309 19.7176H11.6761C11.7582 19.7176 11.8262 19.6509 11.8301 19.5687C11.943 16.6264 12.3177 14.8364 13.5727 13.5814C14.8289 12.3252 16.6215 11.9505 19.5691 11.8389C19.6512 11.8363 19.7179 11.7683 19.7179 11.6849V11.341H19.7192Z" fill="#A4A4A4"/>
</svg>
