<svg width="20" height="20" viewBox="0 0 20 20" fill="none" xmlns="http://www.w3.org/2000/svg">
<path d="M9.7207 0.75H9.79883C13.4224 0.750007 15.3846 1.10969 16.7324 2.23926L16.9941 2.47559C18.3767 3.89519 18.7676 5.8538 18.7676 9.70312V9.8125C18.7676 13.6722 18.3739 15.6413 16.9893 17.0439C15.6329 18.3571 13.674 18.7656 9.79785 18.7656H9.71973C5.84566 18.7656 3.87419 18.3574 2.53418 17.0508C1.14279 15.6303 0.750014 13.6717 0.75 9.8125V9.70312C0.75 5.84442 1.14265 3.87339 2.52734 2.4707C3.79889 1.2397 5.60157 0.804505 9.01562 0.754883L9.7207 0.75Z" stroke="#A4A4A4" stroke-width="1.5"/>
<path d="M16.73 9.62308C16.73 9.5534 16.6734 9.49569 16.6037 9.49243C14.1027 9.3977 12.5806 9.07869 11.5157 8.01387C10.4487 6.94687 10.1308 5.42367 10.0361 2.91731C10.0339 2.84763 9.97619 2.79102 9.90542 2.79102H9.61362C9.54394 2.79102 9.48624 2.84763 9.48297 2.91731C9.38824 5.42258 9.07032 6.94687 8.0033 8.01387C6.93737 9.07978 5.41632 9.3977 2.91536 9.49243C2.84568 9.4946 2.78906 9.55231 2.78906 9.62308V9.91487C2.78906 9.98455 2.84568 10.0423 2.91536 10.0455C5.41632 10.1402 6.93846 10.4593 8.0033 11.5241C9.06814 12.5889 9.38607 14.1077 9.48188 16.6043C9.48406 16.674 9.54176 16.7306 9.61254 16.7306H9.90542C9.9751 16.7306 10.0328 16.674 10.0361 16.6043C10.1319 14.1077 10.4498 12.5889 11.5147 11.5241C12.5806 10.4582 14.1016 10.1402 16.6026 10.0455C16.6723 10.0433 16.7289 9.98564 16.7289 9.91487V9.62308H16.73Z" fill="#A4A4A4"/>
</svg>
