<svg width="22" height="22" viewBox="0 0 22 22" fill="none" xmlns="http://www.w3.org/2000/svg">
<path d="M10.6902 0C7.78917 0 7.42437 0.0133615 6.28452 0.0641351C5.14468 0.117581 4.3683 0.296625 3.68813 0.561182C2.97435 0.828847 2.32799 1.24983 1.79462 1.79445C1.24995 2.32776 0.828928 2.97406 0.561237 3.68777C0.296654 4.36653 0.116256 5.14417 0.0641414 6.2799C0.0133628 7.42231 0 7.78574 0 10.6905C0 13.5926 0.0133628 13.9561 0.0641414 15.0958C0.117593 16.2342 0.296654 17.0105 0.561237 17.6906C0.835175 18.3934 1.19998 18.9893 1.79462 19.5839C2.38793 20.1785 2.98391 20.5446 3.6868 20.8172C4.3683 21.0818 5.14334 21.2621 6.28185 21.3142C7.42303 21.365 7.7865 21.3784 10.6902 21.3784C13.594 21.3784 13.9561 21.365 15.0973 21.3142C16.2345 21.2608 17.0135 21.0818 17.6937 20.8172C18.407 20.5494 19.0529 20.1284 19.5858 19.5839C20.1805 18.9893 20.5453 18.3934 20.8192 17.6906C21.0825 17.0105 21.2629 16.2342 21.3163 15.0958C21.3671 13.9561 21.3805 13.5926 21.3805 10.6892C21.3805 7.78574 21.3671 7.42231 21.3163 6.28123C21.2629 5.14417 21.0825 4.36653 20.8192 3.68777C20.5515 2.97406 20.1305 2.32776 19.5858 1.79445C19.0525 1.24983 18.4061 0.828847 17.6923 0.561182C17.0108 0.296625 16.2331 0.116245 15.096 0.0641351C13.9548 0.0133615 13.5926 0 10.6876 0H10.6902ZM9.73212 1.92673H10.6916C13.5459 1.92673 13.8839 1.93608 15.0104 1.98819C16.0527 2.03495 16.6193 2.20999 16.9961 2.35563C17.4946 2.54937 17.8514 2.78186 18.2255 3.15598C18.5997 3.5301 18.8309 3.88552 19.0246 4.38524C19.1716 4.7607 19.3453 5.32722 19.3921 6.36942C19.4442 7.49579 19.4549 7.83384 19.4549 10.6865C19.4549 13.5392 19.4442 13.8786 19.3921 15.0049C19.3453 16.0471 19.1703 16.6123 19.0246 16.9891C18.852 17.4526 18.5786 17.872 18.2242 18.2171C17.85 18.5912 17.4946 18.8223 16.9948 19.0161C16.6206 19.163 16.0541 19.3367 15.0104 19.3848C13.8839 19.4356 13.5459 19.4476 10.6916 19.4476C7.83728 19.4476 7.49787 19.4356 6.37138 19.3848C5.32908 19.3367 4.76384 19.163 4.38701 19.0161C3.92309 18.844 3.50319 18.5711 3.15763 18.2171C2.80254 17.8718 2.52868 17.4519 2.35586 16.9878C2.21021 16.6123 2.03515 16.0458 1.98838 15.0036C1.93761 13.8772 1.92692 13.5392 1.92692 10.6838C1.92692 7.82849 1.93761 7.49312 1.98838 6.36675C2.03649 5.32455 2.21021 4.75803 2.3572 4.38123C2.55096 3.88285 2.78347 3.5261 3.15763 3.15197C3.53179 2.77785 3.88724 2.5467 4.38701 2.35296C4.76384 2.20598 5.32908 2.03228 6.37138 1.98418C7.35756 1.93875 7.73973 1.92539 9.73212 1.92405V1.92673ZM16.3975 3.70113C16.229 3.70113 16.0622 3.73431 15.9066 3.79877C15.7509 3.86323 15.6095 3.95772 15.4904 4.07683C15.3713 4.19594 15.2768 4.33734 15.2123 4.49297C15.1478 4.64859 15.1147 4.81539 15.1147 4.98383C15.1147 5.15228 15.1478 5.31908 15.2123 5.4747C15.2768 5.63033 15.3713 5.77173 15.4904 5.89084C15.6095 6.00995 15.7509 6.10443 15.9066 6.1689C16.0622 6.23336 16.229 6.26654 16.3975 6.26654C16.7377 6.26654 17.064 6.1314 17.3046 5.89084C17.5452 5.65029 17.6803 5.32403 17.6803 4.98383C17.6803 4.64364 17.5452 4.31738 17.3046 4.07683C17.064 3.83627 16.7377 3.70113 16.3975 3.70113ZM10.6916 5.20029C9.9634 5.18893 9.24023 5.32253 8.56419 5.59331C7.88814 5.86408 7.27272 6.26663 6.75376 6.77751C6.2348 7.28839 5.82266 7.8974 5.54134 8.56907C5.26002 9.24074 5.11515 9.96166 5.11515 10.6899C5.11515 11.4181 5.26002 12.139 5.54134 12.8106C5.82266 13.4823 6.2348 14.0913 6.75376 14.6022C7.27272 15.1131 7.88814 15.5156 8.56419 15.7864C9.24023 16.0572 9.9634 16.1908 10.6916 16.1794C12.1328 16.1569 13.5074 15.5687 14.5186 14.5416C15.5299 13.5146 16.0967 12.1311 16.0967 10.6899C16.0967 9.24859 15.5299 7.86512 14.5186 6.83807C13.5074 5.81103 12.1328 5.22277 10.6916 5.20029ZM10.6916 7.12568C11.1596 7.12568 11.623 7.21785 12.0554 7.39694C12.4878 7.57602 12.8807 7.83851 13.2116 8.16941C13.5425 8.50031 13.805 8.89315 13.9841 9.32549C14.1632 9.75784 14.2554 10.2212 14.2554 10.6892C14.2554 11.1572 14.1632 11.6205 13.9841 12.0529C13.805 12.4852 13.5425 12.8781 13.2116 13.209C12.8807 13.5399 12.4878 13.8024 12.0554 13.9814C11.623 14.1605 11.1596 14.2527 10.6916 14.2527C9.74638 14.2527 8.8399 13.8773 8.17155 13.209C7.50319 12.5407 7.12772 11.6343 7.12772 10.6892C7.12772 9.74409 7.50319 8.8377 8.17155 8.16941C8.8399 7.50112 9.74638 7.12568 10.6916 7.12568Z" fill="url(#paint0_linear_4793_1749)"/>
<defs>
<linearGradient id="paint0_linear_4793_1749" x1="19.3265" y1="1.15323" x2="1.64818" y2="20.0101" gradientUnits="userSpaceOnUse">
<stop stop-color="#EF20AE"/>
<stop offset="0.471154" stop-color="#C222B2"/>
<stop offset="1" stop-color="#FA971E"/>
</linearGradient>
</defs>
</svg>
