<svg width="19" height="19" viewBox="0 0 19 19" fill="none" xmlns="http://www.w3.org/2000/svg">
<path d="M9.07063 0C6.60909 0 6.29955 0.0113372 5.3324 0.0544186C4.36524 0.0997674 3.70649 0.251686 3.12937 0.476162C2.52373 0.703276 1.97529 1.06048 1.52273 1.52259C1.06058 1.9751 0.703343 2.52348 0.476208 3.12907C0.25171 3.705 0.0986431 4.36482 0.0544238 5.32848C0.0113383 6.29782 0 6.60619 0 9.0709C0 11.5333 0.0113383 11.8417 0.0544238 12.8088C0.0997769 13.7747 0.25171 14.4334 0.476208 15.0105C0.708643 15.6068 1.01818 16.1124 1.52273 16.6169C2.02615 17.1214 2.53184 17.4321 3.12823 17.6634C3.70649 17.8878 4.36411 18.0409 5.33013 18.0851C6.29842 18.1282 6.60682 18.1395 9.07063 18.1395C11.5344 18.1395 11.8417 18.1282 12.81 18.0851C13.7749 18.0398 14.4359 17.8878 15.013 17.6634C15.6183 17.4361 16.1663 17.0789 16.6185 16.6169C17.1231 16.1124 17.4326 15.6068 17.6651 15.0105C17.8884 14.4334 18.0415 13.7747 18.0868 12.8088C18.1299 11.8417 18.1413 11.5333 18.1413 9.06976C18.1413 6.60619 18.1299 6.29782 18.0868 5.32962C18.0415 4.36482 17.8884 3.705 17.6651 3.12907C17.4379 2.52348 17.0807 1.9751 16.6185 1.52259C16.166 1.06048 15.6175 0.703276 15.0119 0.476162C14.4336 0.251686 13.7738 0.0986337 12.8089 0.0544186C11.8406 0.0113372 11.5333 0 9.06836 0H9.07063ZM8.25768 1.63482H9.07176C11.4936 1.63482 11.7805 1.64276 12.7363 1.68698C13.6207 1.72666 14.1014 1.87517 14.4212 1.99875C14.8441 2.16314 15.1468 2.36041 15.4643 2.67785C15.7818 2.99529 15.9779 3.29686 16.1423 3.72087C16.267 4.03944 16.4144 4.52014 16.4541 5.40444C16.4983 6.36017 16.5074 6.647 16.5074 9.06749C16.5074 11.488 16.4983 11.776 16.4541 12.7317C16.4144 13.616 16.2659 14.0955 16.1423 14.4153C15.9959 14.8085 15.7639 15.1644 15.4632 15.4571C15.1457 15.7746 14.8441 15.9707 14.42 16.1351C14.1026 16.2598 13.6218 16.4072 12.7363 16.448C11.7805 16.4911 11.4936 16.5013 9.07176 16.5013C6.64991 16.5013 6.36191 16.4911 5.4061 16.448C4.52171 16.4072 4.0421 16.2598 3.72236 16.1351C3.32873 15.9891 2.97244 15.7576 2.67924 15.4571C2.37795 15.1642 2.14558 14.8079 1.99894 14.4141C1.87535 14.0955 1.72682 13.6148 1.68714 12.7305C1.64405 11.7748 1.63498 11.488 1.63498 9.06523C1.63498 6.64247 1.64405 6.3579 1.68714 5.40218C1.72796 4.51787 1.87535 4.03718 2.00007 3.71747C2.16448 3.29459 2.36177 2.99189 2.67924 2.67445C2.99671 2.357 3.29831 2.16087 3.72236 1.99648C4.0421 1.87177 4.52171 1.72439 5.4061 1.68357C6.24286 1.64503 6.56714 1.63369 8.25768 1.63256V1.63482ZM13.9132 3.1404C13.7703 3.1404 13.6287 3.16856 13.4967 3.22325C13.3646 3.27795 13.2446 3.35812 13.1435 3.45918C13.0425 3.56025 12.9623 3.68023 12.9076 3.81227C12.8529 3.94432 12.8247 4.08585 12.8247 4.22878C12.8247 4.3717 12.8529 4.51323 12.9076 4.64528C12.9623 4.77733 13.0425 4.89731 13.1435 4.99837C13.2446 5.09944 13.3646 5.1796 13.4967 5.2343C13.6287 5.289 13.7703 5.31715 13.9132 5.31715C14.2019 5.31715 14.4788 5.20248 14.6829 4.99837C14.887 4.79426 15.0017 4.51743 15.0017 4.22878C15.0017 3.94012 14.887 3.66329 14.6829 3.45918C14.4788 3.25507 14.2019 3.1404 13.9132 3.1404ZM9.07176 4.41244C8.45391 4.4028 7.84031 4.51616 7.26668 4.74591C6.69306 4.97567 6.17088 5.31723 5.73054 5.75071C5.2902 6.18419 4.9405 6.70093 4.70181 7.27084C4.46311 7.84076 4.34018 8.45246 4.34018 9.07033C4.34018 9.6882 4.46311 10.2999 4.70181 10.8698C4.9405 11.4397 5.2902 11.9565 5.73054 12.3899C6.17088 12.8234 6.69306 13.165 7.26668 13.3947C7.84031 13.6245 8.45391 13.7379 9.07176 13.7282C10.2946 13.7091 11.461 13.21 12.319 12.3386C13.1771 11.4671 13.658 10.2932 13.658 9.07033C13.658 7.84741 13.1771 6.67354 12.319 5.8021C11.461 4.93065 10.2946 4.43152 9.07176 4.41244ZM9.07176 6.04613C9.46887 6.04613 9.86209 6.12434 10.229 6.27629C10.5958 6.42824 10.9292 6.65096 11.21 6.93173C11.4908 7.2125 11.7135 7.54582 11.8655 7.91267C12.0175 8.27951 12.0957 8.67269 12.0957 9.06976C12.0957 9.46683 12.0175 9.86001 11.8655 10.2269C11.7135 10.5937 11.4908 10.927 11.21 11.2078C10.9292 11.4886 10.5958 11.7113 10.229 11.8632C9.86209 12.0152 9.46887 12.0934 9.07176 12.0934C8.26977 12.0934 7.50062 11.7748 6.93353 11.2078C6.36643 10.6408 6.04784 9.87168 6.04784 9.06976C6.04784 8.26784 6.36643 7.49877 6.93353 6.93173C7.50062 6.36469 8.26977 6.04613 9.07176 6.04613Z" fill="url(#paint0_linear_4793_1717)"/>
<defs>
<linearGradient id="paint0_linear_4793_1717" x1="16.3984" y1="0.978515" x2="1.39844" y2="16.9785" gradientUnits="userSpaceOnUse">
<stop stop-color="#EF20AE"/>
<stop offset="0.471154" stop-color="#C222B2"/>
<stop offset="1" stop-color="#FA971E"/>
</linearGradient>
</defs>
</svg>
