<svg width="25" height="22" viewBox="0 0 25 22" fill="none" xmlns="http://www.w3.org/2000/svg">
<path d="M22.1025 0.758789C22.462 0.791919 22.9152 0.930258 23.2461 1.3418C23.5696 1.74422 23.6686 2.27724 23.6211 2.87207L23.6221 2.87305C23.565 3.72041 23.1196 6.61299 22.6875 9.64258L22.6865 9.64844L21.3193 18.7344C21.2187 19.485 20.9644 20.1023 20.4941 20.5059C20.0071 20.9237 19.4203 21.0021 18.9062 20.9404C17.9385 20.8243 16.9445 20.1849 16.3564 19.7441L16.3477 19.7383L16.3398 19.7314C16.3447 19.7353 16.3336 19.7272 16.29 19.6963C16.2521 19.6694 16.2002 19.6327 16.1357 19.5879C16.007 19.4983 15.8332 19.3782 15.624 19.2334C15.2067 18.9446 14.6544 18.5608 14.0635 18.1426C12.8946 17.3152 11.5324 16.3217 10.7842 15.6514L10.7812 15.6484C10.5302 15.4207 10.1833 15.0145 10.0986 14.4521C10.006 13.836 10.2536 13.2298 10.8174 12.7021L12.3398 11.209C13.2937 10.2639 14.2574 9.29025 15.1055 8.4209L8.38574 13.2148L8.375 13.2227L8.36328 13.2295L7.9502 12.6045L8.36328 13.2305H8.3623L8.36035 13.2314C8.35919 13.2322 8.35772 13.2335 8.35645 13.2344C8.35406 13.2359 8.35142 13.2375 8.34863 13.2393C8.34258 13.2431 8.33508 13.2472 8.32715 13.252C8.31129 13.2615 8.29193 13.2734 8.26855 13.2861C8.22174 13.3117 8.15981 13.3431 8.08301 13.376C7.92933 13.4418 7.71627 13.5147 7.44629 13.5654C6.90109 13.6678 6.14637 13.675 5.20801 13.377C4.37808 13.1134 3.4821 12.8061 2.7959 12.5664C2.45248 12.4464 2.16038 12.3432 1.9541 12.2695C1.85091 12.2327 1.76899 12.2028 1.71289 12.1826C1.68494 12.1725 1.66311 12.1655 1.64844 12.1602C1.64109 12.1575 1.63564 12.1547 1.63184 12.1533C1.62994 12.1526 1.62794 12.1527 1.62695 12.1523L1.62598 12.1514L1.54199 12.1211L1.46777 12.0723L1.88184 11.4463L1.4668 12.0713H1.46582L1.46484 12.0693C1.46375 12.0686 1.46217 12.0682 1.46094 12.0674C1.45816 12.0655 1.45462 12.0629 1.45117 12.0605C1.44428 12.0558 1.43612 12.0498 1.42676 12.043C1.40813 12.0294 1.38434 12.0121 1.35742 11.9902C1.30408 11.947 1.23312 11.8843 1.15918 11.8037C1.02104 11.6532 0.817932 11.3802 0.763672 11.0029C0.703567 10.5841 0.845259 10.1715 1.16504 9.81934C1.46104 9.4934 1.90978 9.21416 2.5127 8.96387C5.85244 7.51921 17.9454 2.21639 20.7686 0.978516L20.7764 0.974609L20.7842 0.97168L21.0703 1.66504C20.8032 1.01628 20.786 0.974486 20.7852 0.97168L20.7871 0.970703C20.7881 0.970296 20.7898 0.970231 20.791 0.969727C20.7935 0.968732 20.7964 0.967166 20.7998 0.96582C20.8067 0.963074 20.8155 0.959117 20.8262 0.955078C20.8475 0.946997 20.8762 0.936763 20.9111 0.924805C20.981 0.900879 21.0787 0.87053 21.1943 0.841797C21.416 0.786725 21.7489 0.726198 22.1025 0.758789Z" stroke="#23A0DC" stroke-width="1.5"/>
</svg>
