<svg width="22" height="22" viewBox="0 0 22 22" fill="none" xmlns="http://www.w3.org/2000/svg">
<path d="M0.75 10.3837C0.75 5.84233 0.75 3.57166 2.16083 2.16083C3.57166 0.75 5.84235 0.75 10.3838 0.75H11.1866C15.728 0.75 17.9987 0.75 19.4095 2.16083C20.8203 3.57166 20.8203 5.84233 20.8203 10.3837V11.1865C20.8203 15.728 20.8203 17.9986 19.4095 19.4095C17.9987 20.8203 15.728 20.8203 11.1866 20.8203H10.3838C5.84235 20.8203 3.57166 20.8203 2.16083 19.4095C0.75 17.9986 0.75 15.728 0.75 11.1865V10.3837Z" stroke="#0077FF" stroke-width="1.5"/>
<path d="M11.3089 14.1286C7.19451 14.1286 4.84778 11.6173 4.75 7.43848H6.81094C6.87863 10.5056 8.39797 11.8048 9.60144 12.0727V7.43848H11.5421V10.0837C12.7305 9.96986 13.979 8.76444 14.4002 7.43848H16.3408C16.0174 9.07249 14.6635 10.2779 13.7007 10.7735C14.6635 11.1753 16.2055 12.2267 16.7922 14.1286H14.656C14.1971 12.8562 13.054 11.8718 11.5421 11.7378V14.1286H11.3089Z" fill="#0077FF"/>
</svg>
