<svg width="70" height="70" viewBox="0 0 70 70" fill="none" xmlns="http://www.w3.org/2000/svg">
<circle cx="35" cy="35" r="35" fill="#4A4141"/>
<path d="M24 20.5156H25V48.2417H24V20.5156Z" fill="white"/>
<path d="M45 20.5001L46 20.5V48.2418H45V20.5001Z" fill="white"/>
<path d="M24 20.5L25.0022 20.4987L35.5037 37.4979L34.5015 37.4991L24 20.5Z" fill="white"/>
<path d="M45.0016 20.4999L46.0016 20.4999L35.5016 37.4999L34.5033 37.4996L45.0016 20.4999Z" fill="white"/>
<path d="M46 32.2417H57L56 33.7417H46V32.2417Z" fill="white"/>
<path d="M46 37.2417H55L54.1818 38.7417H46V37.2417Z" fill="white"/>
<path d="M24 32.2417H13L14 33.7417H24V32.2417Z" fill="white"/>
<path d="M24 37.2417H15L15.8182 38.7417H24V37.2417Z" fill="white"/>
</svg>
