<svg width="70" height="70" viewBox="0 0 70 70" fill="none" xmlns="http://www.w3.org/2000/svg">
<circle cx="35" cy="35" r="35" fill="#4A4141"/>
<rect x="23.5" y="22.5" width="22" height="23" rx="0.5" stroke="white"/>
<path d="M30 26.5V17H39V19.0263V26.5" stroke="white" stroke-linejoin="round"/>
<circle cx="45.5" cy="44.5" r="12.5" fill="white"/>
<path d="M38.5902 44.7784V45.4034H36.0447V44.7784H38.5902ZM41.5767 48.0795C41.2434 48.0795 40.9432 48.0133 40.6761 47.8807C40.4091 47.7481 40.1951 47.5663 40.0341 47.3352C39.8731 47.1042 39.785 46.8409 39.7699 46.5455H40.4517C40.4782 46.8087 40.5975 47.0265 40.8097 47.1989C41.0237 47.3693 41.2794 47.4545 41.5767 47.4545C41.8153 47.4545 42.0275 47.3987 42.2131 47.2869C42.4006 47.1752 42.5473 47.0218 42.6534 46.8267C42.7614 46.6297 42.8153 46.4072 42.8153 46.1591C42.8153 45.9053 42.7595 45.679 42.6477 45.4801C42.5379 45.2794 42.3864 45.1212 42.1932 45.0057C42 44.8902 41.7794 44.8314 41.5312 44.8295C41.3532 44.8277 41.1705 44.8551 40.983 44.9119C40.7955 44.9669 40.6411 45.0379 40.5199 45.125L39.8608 45.0455L40.2131 42.1818H43.2358V42.8068H40.804L40.5994 44.5227H40.6335C40.7528 44.428 40.9025 44.3494 41.0824 44.2869C41.2623 44.2244 41.4498 44.1932 41.6449 44.1932C42.0009 44.1932 42.3182 44.2784 42.5966 44.4489C42.8769 44.6174 43.0966 44.8485 43.2557 45.142C43.4167 45.4356 43.4972 45.7708 43.4972 46.1477C43.4972 46.5189 43.4138 46.8504 43.2472 47.142C43.0824 47.4318 42.8551 47.661 42.5653 47.8295C42.2756 47.9962 41.946 48.0795 41.5767 48.0795ZM46.5234 48.0795C46.0954 48.0795 45.7308 47.9631 45.4297 47.7301C45.1286 47.4953 44.8984 47.1553 44.7393 46.7102C44.5803 46.2633 44.5007 45.7235 44.5007 45.0909C44.5007 44.4621 44.5803 43.9252 44.7393 43.4801C44.9003 43.0331 45.1314 42.6922 45.4325 42.4574C45.7356 42.2206 46.0992 42.1023 46.5234 42.1023C46.9477 42.1023 47.3104 42.2206 47.6115 42.4574C47.9145 42.6922 48.1456 43.0331 48.3047 43.4801C48.4657 43.9252 48.5462 44.4621 48.5462 45.0909C48.5462 45.7235 48.4666 46.2633 48.3075 46.7102C48.1484 47.1553 47.9183 47.4953 47.6172 47.7301C47.3161 47.9631 46.9515 48.0795 46.5234 48.0795ZM46.5234 47.4545C46.9477 47.4545 47.2772 47.25 47.5121 46.8409C47.7469 46.4318 47.8643 45.8485 47.8643 45.0909C47.8643 44.5871 47.8104 44.1581 47.7024 43.804C47.5964 43.4498 47.4429 43.1799 47.2422 42.9943C47.0433 42.8087 46.8037 42.7159 46.5234 42.7159C46.103 42.7159 45.7744 42.9233 45.5376 43.3381C45.3009 43.7509 45.1825 44.3352 45.1825 45.0909C45.1825 45.5947 45.2356 46.0227 45.3416 46.375C45.4477 46.7273 45.6001 46.9953 45.799 47.179C45.9998 47.3627 46.2412 47.4545 46.5234 47.4545ZM52.5916 46.9091V46.6023C52.5916 46.3902 52.6352 46.196 52.7223 46.0199C52.8113 45.8419 52.9401 45.6998 53.1087 45.5938C53.2791 45.4858 53.4856 45.4318 53.728 45.4318C53.9742 45.4318 54.1806 45.4858 54.3473 45.5938C54.514 45.6998 54.6399 45.8419 54.7251 46.0199C54.8104 46.196 54.853 46.3902 54.853 46.6023V46.9091C54.853 47.1212 54.8094 47.3163 54.7223 47.4943C54.6371 47.6705 54.5102 47.8125 54.3416 47.9205C54.175 48.0265 53.9704 48.0795 53.728 48.0795C53.4818 48.0795 53.2744 48.0265 53.1058 47.9205C52.9373 47.8125 52.8094 47.6705 52.7223 47.4943C52.6352 47.3163 52.5916 47.1212 52.5916 46.9091ZM53.1712 46.6023V46.9091C53.1712 47.0852 53.2128 47.2434 53.2962 47.3835C53.3795 47.5218 53.5234 47.5909 53.728 47.5909C53.9268 47.5909 54.067 47.5218 54.1484 47.3835C54.2318 47.2434 54.2734 47.0852 54.2734 46.9091V46.6023C54.2734 46.4261 54.2337 46.2689 54.1541 46.1307C54.0746 45.9905 53.9325 45.9205 53.728 45.9205C53.5291 45.9205 53.3861 45.9905 53.299 46.1307C53.2138 46.2689 53.1712 46.4261 53.1712 46.6023ZM49.6939 43.5795V43.2727C49.6939 43.0606 49.7375 42.8665 49.8246 42.6903C49.9136 42.5123 50.0424 42.3703 50.2109 42.2642C50.3814 42.1562 50.5878 42.1023 50.8303 42.1023C51.0765 42.1023 51.2829 42.1562 51.4496 42.2642C51.6162 42.3703 51.7422 42.5123 51.8274 42.6903C51.9126 42.8665 51.9553 43.0606 51.9553 43.2727V43.5795C51.9553 43.7917 51.9117 43.9867 51.8246 44.1648C51.7393 44.3409 51.6125 44.483 51.4439 44.5909C51.2772 44.697 51.0727 44.75 50.8303 44.75C50.584 44.75 50.3767 44.697 50.2081 44.5909C50.0395 44.483 49.9117 44.3409 49.8246 44.1648C49.7375 43.9867 49.6939 43.7917 49.6939 43.5795ZM50.2734 43.2727V43.5795C50.2734 43.7557 50.3151 43.9138 50.3984 44.054C50.4818 44.1922 50.6257 44.2614 50.8303 44.2614C51.0291 44.2614 51.1693 44.1922 51.2507 44.054C51.334 43.9138 51.3757 43.7557 51.3757 43.5795V43.2727C51.3757 43.0966 51.3359 42.9394 51.2564 42.8011C51.1768 42.661 51.0348 42.5909 50.8303 42.5909C50.6314 42.5909 50.4884 42.661 50.4013 42.8011C50.3161 42.9394 50.2734 43.0966 50.2734 43.2727ZM49.9098 48L53.9098 42.1818H54.5575L50.5575 48H49.9098Z" fill="#4A4141"/>
</svg>
