<svg width="20" height="20" viewBox="0 0 20 20" fill="none" xmlns="http://www.w3.org/2000/svg">
<path d="M9.7207 0.75H9.79883C13.4224 0.750007 15.3846 1.10969 16.7324 2.23926L16.9941 2.47559C18.3767 3.89519 18.7676 5.8538 18.7676 9.70312V9.8125C18.7676 13.6722 18.3739 15.6413 16.9893 17.0439C15.6329 18.3571 13.674 18.7656 9.79785 18.7656H9.71973C5.84566 18.7656 3.87419 18.3574 2.53418 17.0508C1.14279 15.6303 0.750014 13.6717 0.75 9.8125V9.70312C0.75 5.84442 1.14265 3.87339 2.52734 2.4707C3.79889 1.2397 5.60157 0.804505 9.01562 0.754883L9.7207 0.75Z" stroke="#2C2C2C" stroke-width="1.5"/>
<path d="M16.73 9.62112C16.73 9.55144 16.6734 9.49374 16.6037 9.49047C14.1027 9.39575 12.5806 9.07674 11.5157 8.01192C10.4487 6.94492 10.1308 5.42172 10.0361 2.91536C10.0339 2.84568 9.97619 2.78906 9.90542 2.78906H9.61362C9.54394 2.78906 9.48624 2.84568 9.48297 2.91536C9.38824 5.42063 9.07032 6.94492 8.0033 8.01192C6.93737 9.07783 5.41632 9.39575 2.91536 9.49047C2.84568 9.49265 2.78906 9.55035 2.78906 9.62112V9.91292C2.78906 9.9826 2.84568 10.0403 2.91536 10.0436C5.41632 10.1383 6.93846 10.4573 8.0033 11.5221C9.06814 12.5869 9.38607 14.1058 9.48188 16.6023C9.48406 16.672 9.54176 16.7286 9.61254 16.7286H9.90542C9.9751 16.7286 10.0328 16.672 10.0361 16.6023C10.1319 14.1058 10.4498 12.5869 11.5147 11.5221C12.5806 10.4562 14.1016 10.1383 16.6026 10.0436C16.6723 10.0414 16.7289 9.98369 16.7289 9.91292V9.62112H16.73Z" fill="#2C2C2C"/>
</svg>
