<svg width="36" height="36" viewBox="0 0 36 36" fill="none" xmlns="http://www.w3.org/2000/svg">
<path d="M17.751 1.5H17.8926C24.9394 1.5 28.4957 2.24724 30.9287 4.60156C33.4213 7.15376 34.1396 10.6806 34.1396 17.7197V17.9189C34.1396 24.9742 33.4173 28.5204 30.9248 31.041C28.4894 33.393 24.9618 34.1396 17.8906 34.1396H17.749C10.6683 34.1396 7.11846 33.3899 4.71289 31.04C2.21833 28.4876 1.5 24.9604 1.5 17.9189V17.7197C1.50001 10.6822 2.21814 7.13384 4.69727 4.61426C7.13315 2.24953 10.6634 1.5 17.751 1.5Z" stroke="#2C2C2C" stroke-width="3"/>
<path d="M30.5503 17.5734C30.5503 17.4462 30.4469 17.3408 30.3197 17.3348C25.7528 17.1619 22.9734 16.5793 21.029 14.6347C19.0805 12.6861 18.5 9.90446 18.327 5.32733C18.323 5.20007 18.2177 5.09668 18.0884 5.09668H17.5556C17.4284 5.09668 17.323 5.20007 17.317 5.32733C17.1441 9.90247 16.5635 12.6861 14.6151 14.6347C12.6687 16.5813 9.89121 17.1619 5.32438 17.3348C5.19713 17.3388 5.09375 17.4442 5.09375 17.5734V18.1063C5.09375 18.2336 5.19713 18.3389 5.32438 18.3449C9.89121 18.5179 12.6707 19.1005 14.6151 21.0451C16.5595 22.9896 17.1401 25.7634 17.315 30.3226C17.319 30.4498 17.4244 30.5532 17.5536 30.5532H18.0884C18.2157 30.5532 18.3211 30.4498 18.327 30.3226C18.502 25.7634 19.0825 22.9896 21.027 21.0451C22.9734 19.0985 25.7509 18.5179 30.3177 18.3449C30.4449 18.3409 30.5483 18.2355 30.5483 18.1063V17.5734H30.5503Z" fill="#2C2C2C"/>
</svg>
