<svg width="36" height="36" viewBox="0 0 36 36" fill="none" xmlns="http://www.w3.org/2000/svg">
<path d="M17.8314 0C12.9924 0 12.3839 0.0222874 10.4827 0.10698C8.58138 0.196129 7.28637 0.494781 6.15184 0.936072C4.96125 1.38255 3.88311 2.08476 2.99345 2.9932C2.08494 3.88279 1.38266 4.96084 0.93615 6.15133C0.494822 7.28353 0.193917 8.58066 0.106989 10.4751C0.0222893 12.3807 0 12.9869 0 17.8322C0 22.673 0.0222893 23.2792 0.106989 25.1803C0.196146 27.0792 0.494822 28.3741 0.93615 29.5086C1.39308 30.6809 2.00158 31.6749 2.99345 32.6667C3.9831 33.6585 4.9772 34.2692 6.14962 34.7238C7.28637 35.1651 8.57915 35.466 10.4782 35.5529C12.3817 35.6376 12.988 35.6599 17.8314 35.6599C22.6749 35.6599 23.2789 35.6376 25.1824 35.5529C27.0793 35.4638 28.3787 35.1651 29.5133 34.7238C30.7031 34.2771 31.7804 33.5749 32.6694 32.6667C33.6613 31.6749 34.2698 30.6809 34.7267 29.5086C35.1658 28.3741 35.4667 27.0792 35.5559 25.1803C35.6406 23.2792 35.6629 22.673 35.6629 17.83C35.6629 12.9869 35.6406 12.3807 35.5559 10.4773C35.4667 8.58066 35.1658 7.28353 34.7267 6.15133C34.2802 4.96084 33.5779 3.88279 32.6694 2.9932C31.7798 2.08476 30.7016 1.38255 29.511 0.936072C28.3743 0.494781 27.077 0.193901 25.1802 0.10698C23.2767 0.0222874 22.6727 0 17.827 0H17.8314ZM16.2333 3.21385H17.8337C22.5947 3.21385 23.1586 3.22945 25.0376 3.31637C26.7761 3.39438 27.7212 3.68634 28.3498 3.92928C29.1811 4.25244 29.7763 4.64024 30.4004 5.26429C31.0245 5.88834 31.4101 6.48119 31.7333 7.31474C31.9784 7.94101 32.2682 8.886 32.3462 10.6244C32.4332 12.5033 32.451 13.0671 32.451 17.8255C32.451 22.5839 32.4332 23.15 32.3462 25.0288C32.2682 26.7672 31.9762 27.71 31.7333 28.3385C31.4454 29.1116 30.9893 29.8112 30.3981 30.3867C29.774 31.0107 29.1811 31.3963 28.3475 31.7195C27.7234 31.9646 26.7784 32.2544 25.0376 32.3346C23.1586 32.4193 22.5947 32.4394 17.8337 32.4394C13.0727 32.4394 12.5065 32.4193 10.6275 32.3346C8.88897 32.2544 7.94613 31.9646 7.31757 31.7195C6.54376 31.4325 5.84336 30.9773 5.26696 30.3867C4.67467 29.8108 4.21787 29.1104 3.9296 28.3362C3.68665 27.71 3.39466 26.765 3.31665 25.0266C3.23195 23.1477 3.21412 22.5839 3.21412 17.821C3.21412 13.0582 3.23195 12.4988 3.31665 10.62C3.39689 8.88154 3.68665 7.93656 3.93183 7.30805C4.25503 6.47673 4.64286 5.88165 5.26696 5.25761C5.89106 4.63356 6.48396 4.24799 7.31757 3.92482C7.94613 3.67966 8.88897 3.38992 10.6275 3.30968C12.2725 3.23391 12.91 3.21162 16.2333 3.20939V3.21385ZM27.3512 6.17362C27.0702 6.17362 26.7919 6.22896 26.5323 6.33649C26.2727 6.44401 26.0368 6.60161 25.8381 6.80029C25.6394 6.99897 25.4818 7.23484 25.3743 7.49443C25.2668 7.75401 25.2114 8.03224 25.2114 8.31321C25.2114 8.59419 25.2668 8.87241 25.3743 9.132C25.4818 9.39159 25.6394 9.62746 25.8381 9.82614C26.0368 10.0248 26.2727 10.1824 26.5323 10.2899C26.7919 10.3975 27.0702 10.4528 27.3512 10.4528C27.9187 10.4528 28.463 10.2274 28.8642 9.82614C29.2655 9.42488 29.491 8.88067 29.491 8.31321C29.491 7.74576 29.2655 7.20154 28.8642 6.80029C28.463 6.39904 27.9187 6.17362 27.3512 6.17362ZM17.8337 8.67427C16.6191 8.65532 15.4128 8.87817 14.2852 9.32984C13.1575 9.7815 12.131 10.453 11.2653 11.3051C10.3997 12.1573 9.71226 13.1731 9.24302 14.2935C8.77377 15.4139 8.53212 16.6164 8.53212 17.8311C8.53212 19.0457 8.77377 20.2482 9.24302 21.3686C9.71226 22.489 10.3997 23.5048 11.2653 24.357C12.131 25.2092 13.1575 25.8806 14.2852 26.3323C15.4128 26.784 16.6191 27.0068 17.8337 26.9879C20.2377 26.9504 22.5305 25.9691 24.2173 24.256C25.904 22.5428 26.8495 20.2351 26.8495 17.8311C26.8495 15.427 25.904 13.1193 24.2173 11.4062C22.5305 9.693 20.2377 8.71177 17.8337 8.67427ZM17.8337 11.8859C18.6143 11.8859 19.3873 12.0396 20.1085 12.3384C20.8298 12.6371 21.4851 13.0749 22.0371 13.6269C22.5891 14.1788 23.027 14.8341 23.3257 15.5553C23.6245 16.2764 23.7782 17.0494 23.7782 17.83C23.7782 18.6105 23.6245 19.3835 23.3257 20.1046C23.027 20.8258 22.5891 21.4811 22.0371 22.033C21.4851 22.585 20.8298 23.0228 20.1085 23.3215C19.3873 23.6203 18.6143 23.774 17.8337 23.774C16.2571 23.774 14.745 23.1478 13.6302 22.033C12.5154 20.9183 11.8891 19.4064 11.8891 17.83C11.8891 16.2535 12.5154 14.7416 13.6302 13.6269C14.745 12.5121 16.2571 11.8859 17.8337 11.8859Z" fill="url(#paint0_linear_4527_2047)"/>
<defs>
<linearGradient id="paint0_linear_4527_2047" x1="32.2368" y1="1.92363" x2="2.74871" y2="33.3771" gradientUnits="userSpaceOnUse">
<stop stop-color="#EF20AE"/>
<stop offset="0.471154" stop-color="#C222B2"/>
<stop offset="1" stop-color="#FA971E"/>
</linearGradient>
</defs>
</svg>
