<svg width="22" height="19" viewBox="0 0 22 19" fill="none" xmlns="http://www.w3.org/2000/svg">
<path d="M18.9912 0.758789C19.315 0.788628 19.7336 0.913768 20.04 1.29492C20.3389 1.66679 20.4242 2.15126 20.3828 2.67188L20.3838 2.67285C20.335 3.39745 19.9556 5.85999 19.5898 8.4248L19.5889 8.43066L18.4297 16.1406C18.3421 16.7918 18.1182 17.3458 17.6904 17.7129C17.2458 18.0943 16.7126 18.1622 16.2559 18.1074C15.4026 18.0051 14.5377 17.4465 14.0371 17.0713L14.0293 17.0645L14.0205 17.0586C14.0196 17.058 13.9739 17.0251 13.8535 16.9414C13.7444 16.8655 13.5976 16.7636 13.4199 16.6406C13.0657 16.3955 12.5957 16.0692 12.0938 15.7139C11.103 15.0126 9.94218 14.1656 9.30176 13.5918L9.29883 13.5889C9.07681 13.3875 8.76098 13.021 8.68359 12.5068C8.5983 11.9393 8.82874 11.3903 9.32617 10.9238L10.6172 9.65723C11.1004 9.17846 11.5859 8.69041 12.0527 8.21875L7.4082 11.5322L7.39746 11.54L7.38672 11.5469L6.97266 10.9219L7.38574 11.5479H7.38477L7.38281 11.5498C7.38186 11.5504 7.3809 11.5511 7.37988 11.5518C7.37753 11.5533 7.37479 11.5549 7.37207 11.5566C7.36628 11.5603 7.35898 11.5649 7.35156 11.5693C7.3368 11.5782 7.31902 11.589 7.29785 11.6006C7.25526 11.6238 7.19926 11.6513 7.13086 11.6807C6.99347 11.7395 6.80437 11.8049 6.56641 11.8496C6.08545 11.9399 5.4263 11.944 4.6123 11.6855C3.90666 11.4615 3.14518 11.2006 2.5625 10.9971C2.27063 10.8951 2.02196 10.8077 1.84668 10.7451C1.75908 10.7138 1.68927 10.6881 1.6416 10.6709L1.57324 10.6465C1.5717 10.6459 1.57018 10.6458 1.56934 10.6455L1.56836 10.6445L1.48438 10.6143L1.41016 10.5654L1.82422 9.93945L1.40918 10.5645H1.4082L1.40625 10.5625C1.40532 10.5619 1.40434 10.5612 1.40332 10.5605C1.40063 10.5587 1.39682 10.556 1.39355 10.5537C1.38716 10.5493 1.37953 10.5442 1.37109 10.5381C1.35385 10.5256 1.33214 10.5091 1.30762 10.4893C1.25901 10.4498 1.19428 10.3927 1.12695 10.3193C1.00219 10.1834 0.813391 9.93195 0.762695 9.58008C0.706064 9.18628 0.84099 8.80268 1.13184 8.48242C1.3987 8.18859 1.79608 7.94384 2.31445 7.72852C5.14794 6.50284 15.4084 2.00343 17.8037 0.953125L17.8115 0.950195L17.8193 0.946289H17.8203H17.8213L17.8223 0.945312L17.834 0.941406C17.8403 0.93891 17.848 0.935226 17.8574 0.931641C17.8766 0.924364 17.9026 0.914918 17.9336 0.904297C17.9953 0.883177 18.081 0.85633 18.1826 0.831055C18.3766 0.782846 18.6733 0.729552 18.9912 0.758789Z" stroke="#23A0DC" stroke-width="1.5"/>
</svg>
