<svg width="40" height="36" viewBox="0 0 40 36" fill="none" xmlns="http://www.w3.org/2000/svg">
<path d="M3.60645 18.9492L3.0918 20.3574V20.3584H3.09375C3.09531 20.359 3.09766 20.3603 3.10059 20.3613C3.10668 20.3636 3.1162 20.3668 3.12793 20.3711C3.15139 20.3796 3.18589 20.392 3.23047 20.4082C3.3199 20.4407 3.44994 20.4886 3.61426 20.5479C3.94284 20.6662 4.40801 20.8327 4.95508 21.0254C6.04739 21.4102 7.47604 21.9022 8.7998 22.3262C10.3416 22.82 11.5941 22.8126 12.5127 22.6387C12.9668 22.5527 13.3281 22.4284 13.5918 22.3145C13.7235 22.2575 13.8315 22.2027 13.9141 22.1572C13.9552 22.1346 13.9906 22.1143 14.0195 22.0967L14.0742 22.0625C14.0766 22.0609 14.0788 22.0591 14.0811 22.0576C14.0822 22.0569 14.0839 22.0564 14.085 22.0557L14.0859 22.0547L13.2549 20.8057L14.0879 22.0527L14.1309 22.0234L21.9941 16.3652C20.532 17.8473 19.0023 19.3763 17.5947 20.7539C16.6468 21.6507 16.2034 22.7112 16.3672 23.8105C16.5155 24.8058 17.1207 25.5142 17.5449 25.9023L17.5518 25.9092C18.7566 26.9978 20.937 28.6019 22.793 29.9268C23.7338 30.5984 24.6137 31.2135 25.2773 31.6768C25.6107 31.9094 25.8864 32.1017 26.0908 32.2451C26.3057 32.3959 26.391 32.4577 26.3984 32.4629L26.415 32.4766L26.4316 32.4893C27.3702 33.1987 29.009 34.2707 30.6377 34.4678C31.514 34.5738 32.5446 34.4418 33.4043 33.6982C34.2283 32.9854 34.6511 31.9165 34.8164 30.6777L34.8174 30.6787L36.9902 16.1084L36.9922 16.0967C37.6771 11.2532 38.3888 6.59356 38.4805 5.2207C38.5588 4.22733 38.3969 3.29005 37.8193 2.56543C37.2252 1.82009 36.413 1.57477 35.7871 1.5166C35.1744 1.45966 34.6055 1.56373 34.2363 1.65625C34.0421 1.70493 33.8787 1.75712 33.7607 1.79785C33.7014 1.81834 33.6522 1.83646 33.6152 1.85059C33.5968 1.85763 33.5807 1.86323 33.5684 1.86816C33.5623 1.87057 33.5572 1.87316 33.5527 1.875C33.5504 1.87594 33.5478 1.87714 33.5459 1.87793L33.5439 1.87891H33.542C33.5416 1.87948 33.5501 1.90119 34.1162 3.26465L33.541 1.87988L33.5254 1.88574L33.5098 1.89355C29.0215 3.8783 9.79382 12.3811 4.48438 14.6973C3.50656 15.107 2.74763 15.5757 2.23535 16.1445C1.67568 16.7661 1.41504 17.5123 1.52441 18.2793C1.62218 18.9648 1.98734 19.4538 2.22754 19.7178C2.35716 19.8602 2.48044 19.9711 2.57422 20.0479C2.6218 20.0868 2.66359 20.1189 2.69727 20.1436C2.71401 20.1558 2.72945 20.1659 2.74219 20.1748C2.74855 20.1792 2.75448 20.1839 2.75977 20.1875C2.76241 20.1893 2.76522 20.1908 2.76758 20.1924C2.76876 20.1932 2.77037 20.1936 2.77148 20.1943L2.77246 20.1963C2.77328 20.1968 2.77891 20.1893 3.60645 18.9492ZM3.60645 18.9492L2.77441 20.1973L2.92285 20.2959L3.09082 20.3574L3.60645 18.9492Z" stroke="#23A0DC" stroke-width="3"/>
</svg>
