<svg width="37" height="37" viewBox="0 0 37 37" fill="none" xmlns="http://www.w3.org/2000/svg">
<path d="M1.5 17.5694C1.5 9.9942 1.5 6.20662 3.85328 3.85331C6.20657 1.5 9.99409 1.5 17.5692 1.5H18.9083C26.4835 1.5 30.2709 1.5 32.6243 3.85331C34.9775 6.20662 34.9775 9.9942 34.9775 17.5694V18.9085C34.9775 26.4838 34.9775 30.2713 32.6243 32.6247C30.2709 34.978 26.4835 34.978 18.9083 34.978H17.5692C9.99409 34.978 6.20657 34.978 3.85328 32.6247C1.5 30.2713 1.5 26.4838 1.5 18.9085V17.5694Z" stroke="#0077FF" stroke-width="3"/>
<path d="M19.1199 23.8156C12.2572 23.8156 8.34279 19.6266 8.17969 12.6562H11.6174C11.7303 17.7723 14.2645 19.9394 16.2719 20.3862V12.6562H19.509V17.0686C21.4913 16.8787 23.5737 14.868 24.2763 12.6562H27.5133C26.9738 15.3818 24.7155 17.3925 23.1096 18.2192C24.7155 18.8894 27.2876 20.6432 28.2662 23.8156H24.703C23.9376 21.6932 22.0308 20.0511 19.509 19.8277V23.8156H19.1199Z" fill="#0077FF"/>
</svg>
