<svg width="19" height="19" viewBox="0 0 19 19" fill="none" xmlns="http://www.w3.org/2000/svg">
<path d="M0.75 8.92421C0.75 5.07084 0.75 3.14417 1.94709 1.94709C3.14417 0.75 5.07084 0.75 8.92421 0.75H9.6054C13.4588 0.75 15.3854 0.75 16.5825 1.94709C17.7796 3.14417 17.7796 5.07084 17.7796 8.92421V9.6054C17.7796 13.4588 17.7796 15.3854 16.5825 16.5825C15.3854 17.7796 13.4588 17.7796 9.6054 17.7796H8.92421C5.07084 17.7796 3.14417 17.7796 1.94709 16.5825C0.75 15.3854 0.75 13.4588 0.75 9.6054V8.92421Z" stroke="#0077FF" stroke-width="1.5"/>
<path d="M9.71361 12.1023C6.22259 12.1023 4.2314 9.97149 4.14844 6.42578H5.89714C5.95458 9.02824 7.24373 10.1306 8.26487 10.3579V6.42578H9.91152V8.67026C10.9199 8.57366 11.9792 7.55086 12.3366 6.42578H13.9832C13.7088 7.81224 12.56 8.83504 11.7431 9.25553C12.56 9.59646 13.8684 10.4886 14.3662 12.1023H12.5536C12.1643 11.0227 11.1943 10.1874 9.91152 10.0738V12.1023H9.71361Z" fill="#0077FF"/>
</svg>
