<svg width="20" height="20" viewBox="0 0 20 20" fill="none" xmlns="http://www.w3.org/2000/svg">
<path fill-rule="evenodd" clip-rule="evenodd" d="M20 9.74272C20 15.1225 15.6044 19.4847 10.1822 19.4847C8.46025 19.4847 6.84248 19.045 5.43607 18.2725L0 20L1.77193 14.7734C0.877772 13.305 0.363619 11.583 0.363619 9.74282C0.363619 4.36193 4.75911 1.73865e-09 10.1822 1.73865e-09C15.6044 -0.000100557 20 4.36183 20 9.74272ZM10.1822 1.55162C5.62944 1.55162 1.9272 5.22553 1.9272 9.74272C1.9272 11.5341 2.51084 13.1944 3.49942 14.5452L2.4686 17.5866L5.6402 16.5788C6.94323 17.4337 8.5046 17.9329 10.1821 17.9329C14.733 17.9329 18.4362 14.2587 18.4362 9.74262C18.4363 5.22553 14.7331 1.55162 10.1822 1.55162ZM15.14 11.9866C15.0792 11.8868 14.9186 11.8271 14.6789 11.7077C14.438 11.5886 13.2542 11.0103 13.0338 10.9311C12.8135 10.8517 12.6519 10.8117 12.4924 11.0503C12.3318 11.2892 11.8705 11.8272 11.7297 11.9867C11.5897 12.1464 11.4496 12.1659 11.2089 12.0464C10.9678 11.9273 10.192 11.6742 9.27306 10.8617C8.5581 10.2278 8.07502 9.44678 7.93393 9.20785C7.79426 8.96922 7.92006 8.84011 8.03922 8.72095C8.14782 8.61345 8.28026 8.4421 8.40062 8.30322C8.52119 8.16325 8.56122 8.06319 8.64146 7.90381C8.72171 7.74432 8.68178 7.60545 8.62095 7.48598C8.56121 7.36682 8.07954 6.19159 7.87873 5.71293C7.67932 5.23568 7.4784 5.25358 7.33732 5.25358C7.19734 5.25358 6.9375 5.29522 6.9375 5.29522C6.9375 5.29522 6.45503 5.35495 6.2348 5.59387C6.01448 5.8325 5.39283 6.41081 5.39283 7.58493C5.39283 8.75996 6.25451 9.89607 6.37478 10.0544C6.49535 10.214 8.03922 12.7041 10.4862 13.6602C12.9332 14.616 12.9332 14.2971 13.3745 14.2569C13.8151 14.218 14.7981 13.6797 14.9989 13.1219C15.1997 12.5638 15.1997 12.0855 15.14 11.9866Z" fill="#2EC54F"/>
</svg>
