<svg width="24" height="24" viewBox="0 0 24 24" fill="none" xmlns="http://www.w3.org/2000/svg">
<path fill-rule="evenodd" clip-rule="evenodd" d="M24 11.6913C24 18.147 18.7253 23.3817 12.2187 23.3817C10.1523 23.3817 8.21097 22.854 6.52328 21.927L0 24L2.12632 17.728C1.05333 15.966 0.436343 13.8997 0.436343 11.6914C0.436343 5.23432 5.71094 2.08638e-09 12.2187 2.08638e-09C18.7253 -0.000120668 24 5.2342 24 11.6913ZM12.2187 1.86194C6.75533 1.86194 2.31264 6.27063 2.31264 11.6913C2.31264 13.8409 3.013 15.8333 4.19931 17.4542L2.96232 21.1039L6.76824 19.8946C8.33188 20.9205 10.2055 21.5195 12.2185 21.5195C17.6796 21.5195 22.1235 17.1104 22.1235 11.6911C22.1236 6.27063 17.6797 1.86194 12.2187 1.86194ZM18.168 14.3839C18.095 14.2642 17.9023 14.1925 17.6146 14.0493C17.3256 13.9063 15.905 13.2123 15.6406 13.1173C15.3762 13.022 15.1823 12.974 14.9909 13.2603C14.7982 13.5471 14.2446 14.1926 14.0756 14.384C13.9077 14.5756 13.7396 14.5991 13.4507 14.4557C13.1613 14.3127 12.2304 14.009 11.1277 13.0341C10.2697 12.2734 9.69002 11.3361 9.52072 11.0494C9.35311 10.7631 9.50407 10.6081 9.64706 10.4651C9.77739 10.3361 9.93631 10.1305 10.0807 9.96387C10.2254 9.7959 10.2735 9.67583 10.3698 9.48457C10.466 9.29318 10.4181 9.12654 10.3451 8.98318C10.2735 8.84019 9.69545 7.42991 9.45447 6.85552C9.21518 6.28282 8.97409 6.3043 8.80479 6.3043C8.63681 6.3043 8.325 6.35426 8.325 6.35426C8.325 6.35426 7.74603 6.42594 7.48176 6.71265C7.21738 6.999 6.4714 7.69297 6.4714 9.10192C6.4714 10.512 7.50542 11.8753 7.64974 12.0652C7.79442 12.2568 9.64706 15.2449 12.5834 16.3922C15.5198 17.5392 15.5198 17.1565 16.0494 17.1083C16.5781 17.0616 17.7578 16.4156 17.9987 15.7463C18.2396 15.0765 18.2396 14.5026 18.168 14.3839Z" fill="#2EC54F"/>
</svg>
